<svg width="170" height="165" viewBox="0 0 170 165" fill="none" xmlns="http://www.w3.org/2000/svg">
<path d="M62.4979 102.4L105.855 62.0048" stroke="white" stroke-width="9"/>
<path d="M17.9308 108.782L12.5507 103.146L39.9342 77.6335L87.817 127.794L60.4335 153.307L53.9774 146.544M17.9308 108.782L53.9774 146.544M17.9308 108.782L11.0849 115.161L5.38004 120.476L41.4266 158.237L47.1315 152.922L53.9774 146.544" stroke="white" stroke-width="5"/>
<path d="M151.531 55.6545L157.449 61.8542L130.066 87.3669L82.1828 37.2062L109.566 11.6934L115.484 17.8931M151.531 55.6545L115.484 17.8931M151.531 55.6545L157.806 49.8079L164.082 43.9612L128.035 6.1997L122.33 11.5149L115.484 17.8931" stroke="white" stroke-width="5"/>
</svg>
