<svg width="127" height="166" viewBox="0 0 127 166" fill="none" xmlns="http://www.w3.org/2000/svg">
<path d="M95.9267 27.5951L92.7133 33.4511M95.9267 27.5951C94.7844 24.5634 90.4 19.3 88 18.5M95.9267 27.5951C96.7115 25.37 99.8528 24.4186 102.5 25M107.205 27.5063C107.264 27.5361 107.378 27.775 107.378 27.5951V23.2774C105.996 9.06499 87.8318 3.90778 79.737 3.1282C54.6234 0.537589 38.21 3.00827 33.1425 4.56743C18.7692 8.16552 10.3059 17.7004 7.87088 22.0181C-0.500346 36.6982 1.88203 65.075 4.11962 77.4284C7.43652 96.7141 15.8999 112.668 19.7169 118.234M107.205 27.5063L92.3728 44.8658C89.4113 48.8237 86.2524 45.4055 87.2395 43.4266L89.5 39.3071M107.205 27.5063C106.157 27.23 104.563 25.4532 102.5 25M107.575 27.5063C111.392 26.187 120.014 26.5156 123.962 38.0295C126.529 47.7443 125.937 71.6355 103.034 89.4819C96.3215 94.4593 82.0667 106.393 78.7498 114.309M78.7498 114.309C79.737 114.429 81.6719 114.956 81.5139 116.108C81.8717 118.287 82.2704 121.375 82.587 125M78.7498 114.309C76.5386 118.008 56.0449 119.346 45.7783 119.346C32.1553 118.986 23.8325 118.202 19.7169 118.234M19.7169 118.234C16.5814 118.259 15.626 118.445 15.7683 118.626C14.7124 119.749 14.2055 123.087 14.0029 127M14.0029 127C13.751 131.867 13.9699 137.624 14.1888 141.114C14.5837 147.411 16.558 154.427 17.7426 158.205C20.1118 163.422 39.3946 164.202 50.1218 163.962C71.2868 163.962 79.8686 158.925 81.5139 156.406C83.6564 146.44 83.3771 134.047 82.587 125M14.0029 127C28.3933 129.297 62.2566 132.114 82.587 125M89.5 39.3071C87.3333 35.8714 85.5 30.4 83.5 30M89.5 39.3071L92.7133 33.4511M92.7133 33.4511C91.3089 30.5416 87.4 24.5781 85 24M102.5 25C101.644 21.8333 99.5267 16 95.9267 14" stroke="white" stroke-width="3"/>
</svg>
