<svg width="63" height="51" viewBox="0 0 63 51" fill="none" xmlns="http://www.w3.org/2000/svg">
<path d="M62 25.5C62 38.2728 60.0546 44.1067 55.653 46.9747C53.4077 48.4377 50.4068 49.2135 46.3921 49.6063C42.3796 49.9989 37.4832 50 31.5 50C25.5168 50 20.6204 49.9989 16.608 49.6063C12.5933 49.2135 9.59241 48.4377 7.34705 46.9747C2.94549 44.1067 1.00012 38.2728 1 25.5C0.999883 12.7272 2.94537 6.8933 7.34704 4.02535C9.59246 2.56232 12.5934 1.78654 16.6081 1.39368C20.6205 1.00105 25.5169 1 31.5 1C37.4831 1 42.3795 1.00105 46.3919 1.39368C50.4065 1.78654 53.4075 2.56232 55.6529 4.02534C60.0545 6.8933 62 12.7272 62 25.5Z" fill="white" stroke="#FF0000" stroke-width="2"/>
<path d="M41.6692 24.696L24.6873 36.1838L24.6161 13.3514L41.6692 24.696Z" fill="#FF0000"/>
</svg>
